<svg width="129.000000" height="41.000000" viewBox="0 0 129 41" fill="none" xmlns="http://www.w3.org/2000/svg" xmlns:xlink="http://www.w3.org/1999/xlink">
	<desc>
			Created with Pixso.
	</desc>
	<defs/>
	<path id="Строим!" d="M22.21 22.42C20.1 23.89 17.45 24.99 13.83 24.99C6.43 24.99 1.17 20.18 1.17 12.77C1.17 5.37 6.43 0.54 13.83 0.54C17.45 0.54 20.1 1.65 22.21 3.12L19.73 6.88C18.29 5.87 16.31 4.93 13.8 4.93C9.24 4.93 5.86 7.98 5.86 12.77C5.86 17.56 9.24 20.61 13.8 20.61C16.31 20.61 18.29 19.67 19.73 18.66L22.21 22.42ZM124.84 17.13L121.92 17.13L120.99 1.05L125.74 1.05L124.84 17.13ZM42.57 31.19L38.48 31.19L38.48 9.02L42.57 9.02L42.57 11.2L42.64 11.2C43.61 9.59 45.29 8.51 47.8 8.51C51.85 8.51 55.23 11.47 55.23 16.76C55.23 22.05 51.85 24.99 47.8 24.99C45.29 24.99 43.61 23.92 42.64 22.32L42.57 22.32L42.57 31.19ZM57.37 16.76C57.37 11.9 61.03 8.51 65.95 8.51C70.88 8.51 74.53 11.9 74.53 16.76C74.53 21.62 70.88 24.99 65.95 24.99C61.03 24.99 57.37 21.62 57.37 16.76ZM21.67 9.02L36.11 9.02L36.11 12.73L30.95 12.73L30.95 24.5L26.83 24.5L26.83 12.73L21.67 12.73L21.67 9.02ZM81.26 24.5L77.57 24.5L77.57 9.02L81.66 9.02L81.66 18.4L81.73 18.4L88.9 9.02L92.61 9.02L92.61 24.5L88.49 24.5L88.49 15.11L88.43 15.11L81.26 24.5ZM99.28 24.5L95.23 24.5L99.75 9.02L103.04 9.02L106.15 16.55L106.22 16.55L109.33 9.02L112.61 9.02L117.14 24.5L113.08 24.5L110.57 15.02L110.5 15.02L107.52 22.25L104.84 22.25L101.86 15.02L101.79 15.02L99.28 24.5ZM42.57 16.76C42.57 19.37 44.28 21.11 46.76 21.11C49.24 21.11 50.95 19.37 50.95 16.76C50.95 14.14 49.24 12.4 46.76 12.4C44.28 12.4 42.57 14.14 42.57 16.76ZM70.27 16.76C70.27 14.11 68.46 12.4 65.95 12.4C63.44 12.4 61.6 14.11 61.6 16.76C61.6 19.4 63.44 21.11 65.95 21.11C68.46 21.11 70.27 19.4 70.27 16.76ZM121.06 19.84L125.71 19.84L125.71 24.5L121.06 24.5L121.06 19.84Z" fill="#FFFFFF" fill-opacity="1.000000" fill-rule="evenodd"/>
	<path id="Строительная компания" d="M5.18 39.56C4.74 39.87 4.19 40.1 3.43 40.1C1.89 40.1 0.79 39.09 0.79 37.54C0.79 36 1.89 34.99 3.43 34.99C4.19 34.99 4.74 35.22 5.18 35.53L4.67 36.31C4.36 36.1 3.95 35.91 3.43 35.91C2.47 35.91 1.77 36.54 1.77 37.54C1.77 38.55 2.47 39.18 3.43 39.18C3.95 39.18 4.36 38.99 4.67 38.78L5.18 39.56ZM17.65 37.54C17.65 36.03 18.76 34.99 20.21 34.99C21.67 34.99 22.78 36.03 22.78 37.54C22.78 39.06 21.67 40.1 20.21 40.1C18.76 40.1 17.65 39.06 17.65 37.54ZM81.5 37.54C81.5 36.03 82.6 34.99 84.06 34.99C85.52 34.99 86.63 36.03 86.63 37.54C86.63 39.06 85.52 40.1 84.06 40.1C82.6 40.1 81.5 39.06 81.5 37.54ZM6.89 35.1L10.46 35.1L10.46 35.92L9.13 35.92L9.13 40L8.23 40L8.23 35.92L6.89 35.92L6.89 35.1ZM12.48 35.1L14.19 35.1C15.29 35.1 15.84 35.75 15.84 36.62C15.84 37.52 15.29 38.18 14.19 38.18L13.38 38.18L13.38 40L12.48 40L12.48 35.1ZM24.94 40L24.94 35.1L25.84 35.1L25.84 38.51L25.85 38.51L28.23 35.1L29.06 35.1L29.06 40L28.16 40L28.16 36.59L28.16 36.59L25.78 40L24.94 40ZM31.08 35.1L34.65 35.1L34.65 35.92L33.31 35.92L33.31 40L32.42 40L32.42 35.92L31.08 35.92L31.08 35.1ZM37.56 37.74L37.56 39.17L39.61 39.17L39.61 40L36.67 40L36.67 35.1L39.57 35.1L39.57 35.92L37.56 35.92L37.56 36.92L39.4 36.92L39.4 37.74L37.56 37.74ZM42.1 35.1L45.87 35.1L45.87 40L44.97 40L44.97 35.93L43 35.93L43 38.77C43 39.63 42.61 40.02 41.84 40.02L41.47 40.02L41.47 39.17L41.74 39.17C41.98 39.17 42.1 39.06 42.1 38.73L42.1 35.1ZM49.19 36.95L50.24 36.95C51.11 36.95 51.83 37.42 51.83 38.48C51.83 39.53 51.11 40 50.24 40L48.29 40L48.29 35.1L49.19 35.1L49.19 36.95ZM57.13 36.99L57.13 35.1L58.02 35.1L58.02 40L57.13 40L57.13 37.85L54.8 37.85L54.8 40L53.91 40L53.91 35.1L54.8 35.1L54.8 36.99L57.13 36.99ZM64.81 40L63.81 40L63.4 38.88L61.39 38.88L60.97 40L59.98 40L61.95 35.1L62.84 35.1L64.81 40ZM66.74 36.58C66.74 35.7 67.34 35.1 68.32 35.1L70.2 35.1L70.2 40L69.3 40L69.3 38.05L68.86 38.05L67.55 40L66.44 40L67.84 38C67.14 37.83 66.74 37.29 66.74 36.58ZM77.95 37.36L80.38 40L79.07 40L76.95 37.59L76.95 40L76.06 40L76.06 35.1L76.95 35.1L76.95 37.27L78.8 35.1L80.03 35.1L77.95 37.36ZM92.41 35.1L93.11 35.1L94.33 40L93.39 40L92.64 36.83L92.63 36.83L91.62 39.27L90.97 39.27L89.96 36.83L89.95 36.83L89.2 40L88.26 40L89.48 35.1L90.18 35.1L91.29 37.87L91.3 37.87L92.41 35.1ZM96.31 35.1L100.39 35.1L100.39 40L99.5 40L99.5 35.93L97.21 35.93L97.21 40L96.31 40L96.31 35.1ZM107.17 40L106.18 40L105.77 38.88L103.75 38.88L103.34 40L102.34 40L104.31 35.1L105.21 35.1L107.17 40ZM112.35 36.99L112.35 35.1L113.24 35.1L113.24 40L112.35 40L112.35 37.85L110.02 37.85L110.02 40L109.13 40L109.13 35.1L110.02 35.1L110.02 36.99L112.35 36.99ZM115.67 40L115.67 35.1L116.56 35.1L116.56 38.51L116.57 38.51L118.95 35.1L119.78 35.1L119.78 40L118.89 40L118.89 36.59L118.88 36.59L116.5 40L115.67 40ZM122.05 36.58C122.05 35.7 122.66 35.1 123.63 35.1L125.51 35.1L125.51 40L124.62 40L124.62 38.05L124.17 38.05L122.86 40L121.75 40L123.15 38C122.45 37.83 122.05 37.29 122.05 36.58ZM21.79 37.54C21.79 36.57 21.14 35.91 20.21 35.91C19.29 35.91 18.63 36.57 18.63 37.54C18.63 38.52 19.29 39.18 20.21 39.18C21.14 39.18 21.79 38.52 21.79 37.54ZM85.64 37.54C85.64 36.57 84.98 35.91 84.06 35.91C83.14 35.91 82.48 36.57 82.48 37.54C82.48 38.52 83.14 39.18 84.06 39.18C84.98 39.18 85.64 38.52 85.64 37.54ZM13.38 37.36L14.09 37.36C14.57 37.36 14.88 37.11 14.88 36.63C14.88 36.15 14.57 35.92 14.09 35.92L13.38 35.92L13.38 37.36ZM67.7 36.59C67.7 37.01 67.95 37.25 68.46 37.25L69.3 37.25L69.3 35.92L68.46 35.92C67.95 35.92 67.7 36.19 67.7 36.59ZM123.01 36.59C123.01 37.01 123.26 37.25 123.77 37.25L124.62 37.25L124.62 35.92L123.77 35.92C123.26 35.92 123.01 36.19 123.01 36.59ZM62.39 36.15L61.68 38.07L63.11 38.07L62.39 36.15ZM104.76 36.15L104.04 38.07L105.47 38.07L104.76 36.15ZM49.19 39.17L50.12 39.17C50.6 39.17 50.89 38.92 50.89 38.48C50.89 38.02 50.6 37.78 50.12 37.78L49.19 37.78L49.19 39.17Z" fill="#FFFFFF" fill-opacity="1.000000" fill-rule="evenodd"/>
</svg>
